<svg width="24" height="22" viewBox="0 0 24 22" fill="none" xmlns="http://www.w3.org/2000/svg">
<path d="M12.0001 0.5C5.37193 0.5 5.92519e-05 4.86406 5.92519e-05 10.25C5.92519e-05 12.4812 0.932872 14.525 2.47975 16.1703C1.78131 18.0172 0.328184 19.5828 0.304747 19.6016C-0.00462825 19.9297 -0.0890033 20.4078 0.0891218 20.8203C0.267247 21.2328 0.675059 21.5 1.12506 21.5C4.00787 21.5 6.28131 20.2953 7.64537 19.3297C9.00006 19.7563 10.4626 20 12.0001 20C18.6282 20 24.0001 15.6359 24.0001 10.25C24.0001 4.86406 18.6282 0.5 12.0001 0.5ZM12.0001 17.75C10.7485 17.75 9.511 17.5578 8.32506 17.1828L7.261 16.8453L6.34693 17.4922C5.67662 17.9656 4.75787 18.4953 3.65162 18.8516C3.99381 18.2844 4.32662 17.6469 4.58443 16.9672L5.08131 15.65L4.11568 14.6281C3.26725 13.7234 2.25006 12.2281 2.25006 10.25C2.25006 6.11563 6.6235 2.75 12.0001 2.75C17.3766 2.75 21.7501 6.11563 21.7501 10.25C21.7501 14.3844 17.3766 17.75 12.0001 17.75Z" fill="black"/>
</svg>
