<svg width="24" height="24" viewBox="0 0 24 24" fill="none" xmlns="http://www.w3.org/2000/svg">
<path d="M8.00001 5.33337C8.00001 4.27251 8.42144 3.25509 9.17158 2.50495C9.92173 1.7548 10.9391 1.33337 12 1.33337V1.33337C13.0609 1.33337 14.0783 1.7548 14.8284 2.50495C15.5786 3.25509 16 4.27251 16 5.33337V5.33337M8.00001 5.33337H16M8.00001 5.33337H4.00001M16 5.33337H20M22.6667 5.33337H20M1.33334 5.33337H4.00001M4.00001 5.33337V20C4.00001 20.7073 4.28096 21.3856 4.78106 21.8857C5.28116 22.3858 5.95943 22.6667 6.66668 22.6667H17.3333C18.0406 22.6667 18.7189 22.3858 19.219 21.8857C19.7191 21.3856 20 20.7073 20 20V5.33337" stroke="black" stroke-width="2" stroke-linecap="round" stroke-linejoin="round"/>
</svg>
