<svg width="56" height="56" viewBox="0 0 56 56" fill="none" xmlns="http://www.w3.org/2000/svg">
<path d="M52.325 21.2625C52.325 21.2625 53.2875 15.8375 49.2625 18.2875C49.2625 18.2875 48.9125 12.775 45.5 16.625C45.5 16.625 43.6625 13.2125 41.65 16.3625C38.9375 20.5625 37.1 27.2125 38.85 38.2375L42.175 36.05C44.5375 29.1375 53.0251 28.35 54.1625 24.5875C54.9501 21.9625 52.325 21.2625 52.325 21.2625ZM19.3375 15.4L10.675 18.55C12.6 8.05005 25.2 8.75005 25.2 8.75005C25.2 8.75005 19.25 11.55 19.3375 15.4Z" fill="#7B93FF"/>
<path d="M20.7375 17.325L11.55 18.55C15.75 8.75002 27.9125 12.1625 27.9125 12.1625C27.9125 12.1625 21.525 13.5625 20.7375 17.325Z" fill="#7B93FF"/>
<path d="M1.75 25.375L6.475 24.15V27.3C6.475 27.2125 3.5875 26.775 1.75 25.375ZM6.475 24.0625L1.75 21.7C4.9 19.25 8.4875 20.0375 8.4875 20.0375L6.475 24.0625Z" fill="#FFD93B"/>
<path d="M29.575 46.375H27.7375V53.2875C27.475 53.375 25.9 53.2 25.2 53.2C23.625 53.2 22.3125 54.3375 22.3125 54.3375H29.575V46.375ZM21.875 46.375H20.0375V53.2875C19.775 53.375 18.2 53.2 17.5 53.2C15.925 53.2 14.6125 54.3375 14.6125 54.3375H21.875V46.375Z" fill="#E08828"/>
<path d="M47.25 31.675C50.6624 31.675 43.6624 46.9875 26.8625 46.9875C15.4875 46.9875 5.94995 42.4375 5.94995 28.175C5.94995 19.3375 11.55 12.1625 23.0124 15.05C34.65 18.1125 28.6999 31.675 47.25 31.675Z" fill="#7B93FF"/>
<path d="M32.9 45.2376C19.25 45.2376 20.65 34.7376 8.48755 35.4376C12.95 49.2626 32.9 45.2376 32.9 45.2376Z" fill="white"/>
<path d="M34.2124 25.55C25.4624 16.975 16.5374 30.975 27.2999 36.575C37.8874 42 45.1499 32.375 45.1499 32.375C45.1499 32.375 39.8124 31.0625 34.2124 25.55Z" fill="#3856DC"/>
<path d="M13.2125 23.975C14.4206 23.975 15.4 22.9956 15.4 21.7875C15.4 20.5794 14.4206 19.6 13.2125 19.6C12.0044 19.6 11.025 20.5794 11.025 21.7875C11.025 22.9956 12.0044 23.975 13.2125 23.975Z" fill="#3E4347"/>
</svg>
