<svg width="20" height="20" viewBox="0 0 20 20" fill="none" xmlns="http://www.w3.org/2000/svg">
<path d="M7.403 14.026L8.043 13.916C8.167 13.894 8.315 13.862 8.486 13.818C10.6 13.288 12 11.708 12 10C12 7.865 9.824 6 7 6C4.176 6 2 7.865 2 10C2 11.218 2.702 12.378 3.931 13.15L3.967 13.17L5 13.74V16.503L7.403 14.026ZM8.385 15.886L4.718 19.666C4.57942 19.809 4.40132 19.9073 4.20651 19.9484C4.0117 19.9895 3.80905 19.9715 3.62452 19.8968C3.43999 19.822 3.28197 19.6939 3.17071 19.5288C3.05945 19.3637 3.00001 19.1691 3 18.97V14.92C2.95533 14.8959 2.91131 14.8705 2.868 14.844C1.129 13.752 0 11.989 0 10C0 6.686 3.134 4 7 4C10.866 4 14 6.686 14 10C14 12.726 11.879 15.028 8.974 15.758C8.77931 15.8079 8.58284 15.8506 8.385 15.886ZM6.936 3C8.146 1.207 10.41 0 13 0C16.866 0 20 2.686 20 6C20 7.989 18.87 9.752 17.132 10.844C17.0887 10.8705 17.0447 10.8959 17 10.92V14.97C17 15.1691 16.9405 15.3637 16.8293 15.5288C16.718 15.6939 16.56 15.822 16.3755 15.8968C16.1909 15.9715 15.9883 15.9895 15.7935 15.9484C15.5987 15.9073 15.4206 15.809 15.282 15.666L13.547 13.878L14.59 12.08L15 12.503V9.74L16.033 9.17L16.069 9.15C17.299 8.378 18 7.218 18 6C18 3.865 15.824 2 13 2C11.72 2 10.574 2.383 9.703 3H6.936Z" fill="#E1E7FF"/>
</svg>
