<svg width="20" height="20" viewBox="0 0 20 20" fill="none" xmlns="http://www.w3.org/2000/svg">
<path d="M1.00003 11H2.00003V18C2.00003 19.103 2.89703 20 4.00003 20H16C17.103 20 18 19.103 18 18V11H19C19.1978 10.9999 19.3911 10.9412 19.5555 10.8314C19.7199 10.7215 19.848 10.5653 19.9237 10.3826C19.9994 10.1999 20.0192 9.99888 19.9806 9.80493C19.942 9.61097 19.8468 9.43281 19.707 9.29296L10.707 0.292957C10.6142 0.200011 10.504 0.126273 10.3827 0.0759627C10.2614 0.0256519 10.1314 -0.000244141 10 -0.000244141C9.8687 -0.000244141 9.73865 0.0256519 9.61734 0.0759627C9.49602 0.126273 9.38582 0.200011 9.29303 0.292957L0.293031 9.29296C0.153222 9.43281 0.0580152 9.61097 0.0194476 9.80493C-0.0191199 9.99888 0.000683092 10.1999 0.0763531 10.3826C0.152023 10.5653 0.280163 10.7215 0.444573 10.8314C0.608982 10.9412 0.802281 10.9999 1.00003 11ZM8.00003 18V13H12V18H8.00003ZM10 2.41396L16 8.41396V13L16.001 18H14V13C14 11.897 13.103 11 12 11H8.00003C6.89703 11 6.00003 11.897 6.00003 13V18H4.00003V8.41396L10 2.41396Z" fill="#E1E7FF"/>
</svg>
