<svg width="21" height="16" viewBox="0 0 21 16" fill="none" xmlns="http://www.w3.org/2000/svg">
<path d="M16.76 6.80005C16.88 6.44005 17 6.08005 17 5.60005C17 2.96005 14.84 0.800049 12.2 0.800049C10.4 0.800049 8.71995 1.88005 7.99995 3.44005C7.63995 3.32005 7.15995 3.20005 6.79995 3.20005C5.11995 3.20005 3.79995 4.52005 3.79995 6.20005C3.79995 6.44005 3.79995 6.68005 3.91995 6.80005C1.75995 7.16005 0.199951 8.84005 0.199951 11C0.199951 13.28 2.11995 15.2 4.39995 15.2H16.4C18.68 15.2 20.6 13.28 20.6 11C20.6 8.84005 18.92 7.04005 16.76 6.80005ZM9.19995 13.88L5.35995 10.04L7.03995 8.36005L9.19995 10.5201L13.76 5.96005L15.44 7.64005L9.19995 13.88Z" fill="#E1E7FF"/>
</svg>
